<svg xmlns="http://www.w3.org/2000/svg" data-name="Layer 1" viewBox="0 0 100 125" x="0px" y="0px"><defs><style>
      .cls-1 {
        fill-rule: evenodd;
      }
    </style></defs><path class="cls-1" d="m20.249,79.223c-.713,0-1.291-.578-1.291-1.291s.578-1.291,1.291-1.291h26.46c.713,0,1.291.578,1.291,1.291s-.578,1.291-1.291,1.291h-26.46Zm18.556-63.006c0-.713.578-1.291,1.291-1.291s1.291.578,1.291,1.291v2.199c3.471.479,6.544,2.828,6.544,6.933,0,.713-.578,1.291-1.291,1.291s-1.291-.578-1.291-1.291c0-5.93-10.549-5.93-10.549,0,0,2.016.75,3.556,2.727,4.189l5.927,1.897c3.078.985,4.523,3.533,4.523,6.641,0,4.123-3.1,6.474-6.588,6.939v2.193c0,.713-.578,1.291-1.291,1.291s-1.291-.578-1.291-1.291v-2.199c-3.471-.479-6.544-2.828-6.544-6.933,0-.713.578-1.291,1.291-1.291s1.291.578,1.291,1.291c0,5.93,10.549,5.93,10.549,0,0-2.017-.75-3.556-2.727-4.189l-5.927-1.897c-3.078-.985-4.523-3.533-4.523-6.641,0-4.123,3.1-6.474,6.588-6.939v-2.193h0Zm39.516-8.834H18.881c-4.621,0-8.397,3.776-8.397,8.397v75.545c0,.713.578,1.291,1.291,1.291h56.642c.713,0,1.291-.578,1.291-1.291v-57.815h18.516c.713,0,1.291-.578,1.291-1.291v-13.641c0-6.16-5.035-11.195-11.195-11.195h0Zm-11.195,24.836v-13.641c0-3.432,1.565-6.54,4.061-8.612H18.881c-3.195,0-5.814,2.619-5.814,5.814v74.254h54.059v-57.815h0Zm17.277-19.722c1.562,1.561,2.531,3.714,2.531,6.081v12.349h-17.225v-12.349c0-2.367.969-4.52,2.531-6.081,3.374-3.374,8.789-3.374,12.163,0h0Zm-27.971,36.984h5.13c1.006,0,1.825.819,1.825,1.825v5.13c0,1.006-.826,1.825-1.825,1.825h-5.13c-1.006,0-1.825-.819-1.825-1.825v-5.13c0-1,.825-1.825,1.825-1.825h0Zm4.372,2.583v3.614h-3.614v-3.614h3.614Zm-40.555,3.099c-.713,0-1.291-.578-1.291-1.291s.578-1.291,1.291-1.291h26.46c.713,0,1.291.578,1.291,1.291s-.578,1.291-1.291,1.291h-26.46Zm36.183,6.349h5.13c1.006,0,1.825.819,1.825,1.825v5.13c0,.999-.826,1.825-1.825,1.825h-5.13c-1.006,0-1.825-.819-1.825-1.825v-5.13c0-1,.825-1.825,1.825-1.825h0Zm4.372,2.583v3.614h-3.614v-3.614h3.614Zm-40.555,3.099c-.713,0-1.291-.578-1.291-1.291s.578-1.291,1.291-1.291h26.46c.713,0,1.291.578,1.291,1.291s-.578,1.291-1.291,1.291h-26.46Zm36.183,6.349h5.13c1.006,0,1.825.819,1.825,1.825v5.13c0,.999-.826,1.825-1.825,1.825h-5.13c-1.006,0-1.825-.819-1.825-1.825v-5.13c0-1,.825-1.825,1.825-1.825h0Zm4.372,2.583v3.614h-3.614v-3.614h3.614Z"/><text x="0" y="115" fill="#000000" font-size="5px" font-weight="bold" font-family="'Helvetica Neue', Helvetica, Arial-Unicode, Arial, Sans-serif">Created by suripah</text><text x="0" y="120" fill="#000000" font-size="5px" font-weight="bold" font-family="'Helvetica Neue', Helvetica, Arial-Unicode, Arial, Sans-serif">from the Noun Project</text></svg>